<?xml version="1.0" standalone="no"?>
<!DOCTYPE svg PUBLIC "-//W3C//DTD SVG 20010904//EN"
 "http://www.w3.org/TR/2001/REC-SVG-20010904/DTD/svg10.dtd">
<svg version="1.0" xmlns="http://www.w3.org/2000/svg"
 width="512.000000pt" height="512.000000pt" viewBox="0 0 512.000000 512.000000"
 preserveAspectRatio="xMidYMid meet">

<g transform="translate(0.000000,512.000000) scale(0.100000,-0.100000)"
fill="#000000" stroke="none">
<path d="M940 4953 c-34 -13 -50 -37 -50 -75 0 -35 8 -47 93 -133 100 -104
122 -113 171 -74 19 15 26 30 26 55 0 29 -12 47 -81 122 -99 106 -119 120
-159 105z"/>
<path d="M2103 4950 c-100 -13 -183 -33 -284 -70 -90 -32 -227 -106 -266 -142
-29 -27 -31 -80 -3 -108 32 -32 76 -25 160 25 83 50 196 97 298 122 103 27
381 24 484 -5 260 -71 473 -224 617 -443 68 -102 109 -195 143 -319 19 -73 23
-109 23 -250 0 -148 -3 -175 -27 -262 -104 -374 -380 -647 -758 -750 -73 -19
-109 -23 -250 -23 -141 0 -177 4 -250 23 -380 104 -663 387 -761 760 -26 100
-36 292 -20 403 24 165 94 333 197 472 39 52 54 81 54 104 0 44 -30 73 -74 73
-29 0 -42 -8 -79 -51 -25 -28 -68 -90 -96 -137 -241 -404 -219 -926 55 -1308
l53 -74 -69 0 c-37 0 -76 -3 -85 -6 -46 -18 -45 25 -45 -1408 0 -978 3 -1352
11 -1370 26 -55 112 -55 138 0 8 18 11 382 11 1331 l0 1305 58 -7 c106 -13
174 -59 216 -148 36 -78 46 -152 46 -359 0 -125 4 -197 12 -211 16 -30 296
-335 319 -347 26 -15 495 -13 522 1 51 28 704 483 725 505 22 25 22 28 22 317
0 223 4 307 15 355 35 148 117 228 247 239 l58 6 0 -571 0 -570 -355 -307
c-247 -213 -357 -314 -362 -333 -13 -52 43 -103 98 -89 29 8 749 627 766 659
7 13 13 57 13 98 l1 75 183 138 c101 76 212 153 247 172 143 75 255 68 349
-24 28 -26 50 -52 49 -57 0 -5 -271 -214 -601 -464 -746 -564 -718 -542 -718
-584 0 -21 8 -40 23 -54 51 -48 44 -52 638 399 l553 420 41 -6 c22 -4 60 -19
85 -34 46 -27 126 -129 113 -142 -5 -4 -242 -130 -528 -279 -286 -150 -528
-281 -537 -292 -38 -43 -3 -128 53 -128 21 0 1138 580 1171 607 31 27 31 61
-1 129 -53 114 -140 219 -203 245 -15 6 -28 14 -28 18 0 3 15 16 33 28 18 13
47 37 65 54 47 46 43 76 -24 165 -107 142 -195 195 -335 202 -153 8 -257 -38
-486 -210 l-143 -108 0 471 0 470 -26 26 c-25 25 -26 25 -160 21 -74 -2 -134
-3 -134 -2 0 0 9 27 20 59 52 150 70 400 41 565 -77 439 -388 798 -811 939
-144 47 -361 69 -507 51z m939 -2334 l-3 -255 -321 -220 -321 -221 -201 0
-201 0 -118 129 -117 130 0 148 c-1 138 -10 255 -26 319 -6 24 -4 26 12 21 10
-4 64 -22 119 -41 136 -46 226 -60 380 -60 287 1 554 97 763 276 18 15 34 28
35 28 1 0 1 -115 -1 -254z"/>
<path d="M3505 4951 c-22 -9 -153 -144 -180 -185 -33 -50 5 -116 68 -116 23 0
46 18 118 93 49 50 92 102 95 115 10 36 -4 71 -36 87 -32 17 -37 17 -65 6z"/>
<path d="M2052 4503 c-21 -8 -42 -60 -42 -103 l0 -40 -85 0 c-78 0 -88 -2
-110 -25 -15 -14 -25 -36 -25 -53 0 -31 32 -72 55 -72 13 0 15 -62 15 -450 0
-393 -2 -450 -15 -450 -27 0 -55 -38 -55 -74 0 -57 35 -76 136 -76 l84 0 0
-40 c0 -97 76 -145 135 -85 20 19 25 34 25 75 l0 50 70 0 70 0 0 -50 c0 -41 5
-56 25 -75 58 -59 135 -11 135 83 0 39 1 40 46 51 259 66 374 356 229 578 -19
28 -50 64 -70 79 -31 24 -34 29 -21 43 43 49 61 106 61 191 0 93 -16 137 -75
203 -27 31 -104 77 -152 91 -13 4 -18 16 -18 46 0 97 -76 145 -135 85 -20 -19
-25 -34 -25 -75 l0 -50 -70 0 -70 0 0 50 c0 41 -5 56 -25 75 -23 24 -61 31
-93 18z m435 -316 c88 -47 100 -170 23 -239 l-30 -28 -155 0 c-177 0 -216 -10
-232 -57 -14 -39 7 -90 39 -97 13 -3 100 -7 193 -8 166 -3 171 -4 218 -31 69
-41 101 -94 105 -177 3 -53 0 -75 -16 -107 -23 -44 -80 -98 -121 -115 -15 -6
-123 -12 -258 -14 l-233 -2 0 448 0 449 218 -3 c181 -2 222 -5 249 -19z"/>
<path d="M691 4474 c-49 -63 -21 -101 112 -152 136 -53 163 -56 197 -22 25 25
26 71 3 99 -21 24 -220 101 -262 101 -20 0 -36 -9 -50 -26z"/>
<path d="M3606 4457 c-96 -37 -111 -46 -125 -75 -14 -30 -14 -36 0 -60 8 -15
27 -33 41 -40 24 -11 39 -8 140 29 153 56 188 98 137 163 -28 36 -62 33 -193
-17z"/>
<path d="M4053 1350 c-47 -20 -57 -87 -18 -125 21 -22 33 -25 93 -25 87 0 215
-32 265 -67 42 -29 71 -78 82 -136 l7 -37 -654 -2 -653 -3 -372 -312 c-204
-172 -379 -323 -387 -335 -32 -46 -13 -118 36 -139 38 -15 70 -1 100 45 13 19
171 159 352 310 l328 276 664 0 c471 0 670 3 688 11 39 18 49 58 44 164 -4 75
-11 105 -32 149 -51 105 -140 170 -279 206 -87 22 -234 33 -264 20z"/>
</g>
</svg>
